<svg width="36" height="24" viewBox="0 0 36 24" fill="none" xmlns="http://www.w3.org/2000/svg">
<path d="M13.1568 9.74148L13.1556 9.74236C12.4643 10.2563 11.6111 10.4901 10.6448 10.4902L13.1568 9.74148ZM13.1568 9.74148C13.9282 9.16533 14.25 8.26535 14.2478 7.2051M13.1568 9.74148L10.6442 10.4902L5.75375 10.4941C5.58127 10.4942 5.41581 10.4258 5.2938 10.3039C5.17178 10.1819 5.10323 10.0165 5.10323 9.84406V4.66571C5.10323 4.30673 5.39425 4.01571 5.75323 4.01571H10.2724C10.7312 4.01367 11.1863 4.05439 11.6334 4.13301L11.6366 4.13357L11.6366 4.13358C12.1042 4.21821 12.5332 4.37225 12.9169 4.60323L12.5816 5.1601L12.9169 4.60323C13.3287 4.85116 13.6525 5.19674 13.8882 5.6192C14.1421 6.07434 14.2477 6.61646 14.2478 7.2051M14.2478 7.2051C14.2478 7.20541 14.2478 7.20572 14.2478 7.20603H13.5978L14.2478 7.20468C14.2478 7.20482 14.2478 7.20496 14.2478 7.2051ZM13.9326 13.3708C13.1523 12.7739 12.1583 12.5082 11.0146 12.5082H5.75323C5.39425 12.5082 5.10323 12.7992 5.10323 13.1582V19.2354C5.10323 19.4079 5.17175 19.5732 5.2937 19.6951C5.41565 19.817 5.58104 19.8855 5.75348 19.8854L10.9203 19.8835C11.422 19.8855 11.9212 19.8338 12.4095 19.7307L12.4136 19.7298C12.9118 19.6213 13.3688 19.4388 13.7723 19.1717C14.1978 18.8901 14.5311 18.51 14.7739 18.0497L14.7752 18.0473C15.032 17.5557 15.1419 16.9669 15.1419 16.3199C15.1419 15.0729 14.7899 14.0245 13.9326 13.3708ZM13.9326 13.3708L13.5377 13.8871L13.9316 13.37C13.932 13.3703 13.9323 13.3705 13.9326 13.3708ZM23.6768 15.7026C23.6693 15.5255 23.7344 15.3532 23.857 15.2253C23.9796 15.0974 24.1491 15.0251 24.3262 15.0251H35.179C35.1928 14.0684 35.0873 13.1503 34.8646 12.2679C34.5966 11.2059 34.163 10.2703 33.5688 9.45223C32.984 8.64719 32.2358 8.0048 31.3164 7.52184L23.6768 15.7026ZM23.6768 15.7026C23.7402 17.1998 24.1214 18.4288 24.9464 19.2333C25.7604 20.0291 26.8909 20.3798 28.2321 20.3798M23.6768 15.7026L28.2321 20.3798M28.2321 20.3798C29.2292 20.3798 30.1214 20.1261 30.8806 19.5966C31.4168 19.2227 31.848 18.7948 32.1108 18.3026M28.2321 20.3798L32.1108 18.3026M32.1108 18.3026H34.5957C34.0294 19.6693 33.2675 20.627 32.3384 21.2307C31.19 21.9768 29.7806 22.3666 28.0769 22.3666C26.896 22.3666 25.8512 22.1767 24.9345 21.8094C24.013 21.4401 23.2424 20.918 22.6128 20.2466C21.9786 19.5703 21.4838 18.7598 21.1336 17.8025C20.7846 16.8485 20.605 15.7878 20.605 14.616C20.605 13.4894 20.7871 12.4521 21.1469 11.4979C21.5077 10.541 22.0173 9.72349 22.6717 9.03559C23.3267 8.34701 24.1111 7.80199 25.0301 7.40127C25.9341 7.00712 26.9477 6.80473 28.0788 6.80473C29.3471 6.80473 30.4188 7.05143 31.3159 7.5216L32.1108 18.3026ZM15.0082 10.4038C14.7658 10.5209 14.6206 10.7753 14.6432 11.0435C14.6657 11.3118 14.8512 11.5384 15.1097 11.6134C16.3464 11.9722 17.2177 12.5827 17.7846 13.4163C18.3667 14.2722 18.6728 15.3237 18.6728 16.6013C18.6728 17.6334 18.4739 18.4924 18.1019 19.1981C17.7174 19.9276 17.2048 20.5148 16.562 20.9696L16.561 20.9703C15.9007 21.4392 15.1431 21.7889 14.279 22.0189C13.3949 22.2526 12.4835 22.3704 11.5706 22.3685H11.5693H1.57041V1.53064H11.259C12.266 1.53064 13.1736 1.62105 13.9848 1.79554C14.7789 1.96637 15.4337 2.24173 15.9671 2.60965C16.4851 2.9669 16.8894 3.4409 17.182 4.04731C17.4673 4.6387 17.6255 5.40309 17.6255 6.36968C17.6255 7.38699 17.3965 8.18263 16.9823 8.7966C16.5571 9.4268 15.9108 9.96794 15.0082 10.4038ZM30.8228 9.90115L30.822 9.90026C30.1349 9.14122 29.1349 8.81887 27.9547 8.81887C27.1871 8.81887 26.4974 8.94935 25.9197 9.24652L25.9188 9.247C25.3888 9.52077 24.943 9.8694 24.5993 10.3053C24.2744 10.7173 24.0389 11.1635 23.9011 11.6446L24.526 11.8236L23.9011 11.6446C23.7802 12.0667 23.7007 12.4666 23.6775 12.8361C23.6663 13.0152 23.7296 13.191 23.8524 13.3218C23.9753 13.4526 24.1468 13.5268 24.3262 13.5268H31.4339C31.6271 13.5268 31.8103 13.4408 31.9338 13.2922C32.0573 13.1436 32.1083 12.9477 32.0729 12.7578C31.8529 11.577 31.4535 10.6004 30.8228 9.90115ZM24.2277 1.81007H31.995L31.8521 3.83594H24.2277L24.2277 1.81007Z" stroke="#1769FF" stroke-width="1.3" stroke-linejoin="round"/>
</svg>
