<svg width="28" height="28" viewBox="0 0 28 28" fill="none" xmlns="http://www.w3.org/2000/svg">
<path d="M13.9496 19.0576C16.7711 19.0576 19.0583 16.7703 19.0583 13.9488C19.0583 11.1274 16.7711 8.84009 13.9496 8.84009C11.1281 8.84009 8.84082 11.1274 8.84082 13.9488C8.84082 16.7703 11.1281 19.0576 13.9496 19.0576Z" stroke="#EA4335" stroke-width="2" stroke-linecap="round" stroke-linejoin="round"/>
<path d="M19.0584 8.84007V15.226C19.0584 16.2422 19.4621 17.2168 20.1806 17.9353C20.8992 18.6539 21.8737 19.0576 22.8899 19.0576C23.9061 19.0576 24.8807 18.6539 25.5993 17.9353C26.3178 17.2168 26.7215 16.2422 26.7215 15.226V13.9488C26.7213 11.0662 25.746 8.2685 23.9542 6.0105C22.1623 3.7525 19.6594 2.16705 16.8522 1.51194C14.0451 0.85684 11.0989 1.17061 8.49264 2.40223C5.88643 3.63386 3.7735 5.7109 2.49741 8.29563C1.22132 10.8804 0.857129 13.8208 1.46405 16.6387C2.07097 19.4567 3.61331 21.9865 5.84029 23.8167C8.06726 25.647 10.8479 26.6701 13.73 26.7196C16.6122 26.7692 19.4263 25.8423 21.7149 24.0897" stroke="#EA4335" stroke-width="2" stroke-linecap="round" stroke-linejoin="round"/>
</svg>
