<svg width="28" height="28" viewBox="0 0 28 28" fill="none" xmlns="http://www.w3.org/2000/svg">
<path d="M20.3356 1.17773H7.56368C4.03682 1.17773 1.17773 4.03682 1.17773 7.56368V20.3356C1.17773 23.8624 4.03682 26.7215 7.56368 26.7215H20.3356C23.8624 26.7215 26.7215 23.8624 26.7215 20.3356V7.56368C26.7215 4.03682 23.8624 1.17773 20.3356 1.17773Z" stroke="#FF7461" stroke-width="2" stroke-linecap="round" stroke-linejoin="round"/>
<path d="M19.364 13.1467C19.5329 14.2856 19.3384 15.4487 18.8081 16.4706C18.2778 17.4926 17.4388 18.3213 16.4105 18.8389C15.3821 19.3565 14.2166 19.5367 13.08 19.3538C11.9433 19.1708 10.8932 18.6342 10.0791 17.8201C9.26499 17.006 8.72832 15.9559 8.54541 14.8192C8.36251 13.6825 8.54267 12.5171 9.06029 11.4887C9.57791 10.4603 10.4066 9.62133 11.4286 9.09107C12.4505 8.56081 13.6136 8.36629 14.7525 8.53516C15.9141 8.70743 16.9896 9.24874 17.82 10.0792C18.6504 10.9096 19.1917 11.985 19.364 13.1467Z" stroke="#FF7461" stroke-width="2" stroke-linecap="round" stroke-linejoin="round"/>
<circle cx="21.2478" cy="6.6514" r="1.32455" stroke="#FF7461"/>
</svg>
