<svg width="28" height="27" viewBox="0 0 28 27" fill="none" xmlns="http://www.w3.org/2000/svg">
<path fill-rule="evenodd" clip-rule="evenodd" d="M19.0584 9.69232C17.2912 9.69232 15.5964 10.3943 14.3469 11.6439C13.0973 12.8935 12.3953 14.5883 12.3953 16.3555V24.2958H15.504V16.3555C15.504 15.4128 15.8785 14.5087 16.5451 13.8421C17.2117 13.1756 18.1157 12.8011 19.0584 12.8011C20.0011 12.8011 20.9052 13.1756 21.5717 13.8421C22.2383 14.5087 22.6128 15.4128 22.6128 16.3555V24.2958H25.7215V16.3555C25.7215 14.5883 25.0195 12.8935 23.77 11.6439C22.5204 10.3943 20.8256 9.69232 19.0584 9.69232ZM12.9326 10.2297C14.5573 8.60504 16.7608 7.69232 19.0584 7.69232C21.356 7.69232 23.5595 8.60504 25.1842 10.2297C26.8088 11.8544 27.7215 14.0579 27.7215 16.3555V25.2958C27.7215 25.8481 27.2738 26.2958 26.7215 26.2958H21.6128C21.0605 26.2958 20.6128 25.8481 20.6128 25.2958V16.3555C20.6128 15.9432 20.449 15.5479 20.1575 15.2564C19.866 14.9648 19.4707 14.8011 19.0584 14.8011C18.6462 14.8011 18.2508 14.9648 17.9593 15.2564C17.6678 15.5479 17.504 15.9432 17.504 16.3555V25.2958C17.504 25.8481 17.0563 26.2958 16.504 26.2958H11.3953C10.843 26.2958 10.3953 25.8481 10.3953 25.2958V16.3555C10.3953 14.0579 11.308 11.8544 12.9326 10.2297Z" fill="#1D4DC8"/>
<path fill-rule="evenodd" clip-rule="evenodd" d="M0.177734 9.96951C0.177734 9.41723 0.62545 8.96951 1.17773 8.96951H6.2865C6.83878 8.96951 7.2865 9.41723 7.2865 9.96951V25.2958C7.2865 25.8481 6.83878 26.2958 6.2865 26.2958H1.17773C0.62545 26.2958 0.177734 25.8481 0.177734 25.2958V9.96951ZM2.17773 10.9695V24.2958H5.2865V10.9695H2.17773Z" fill="#1D4DC8"/>
<path fill-rule="evenodd" clip-rule="evenodd" d="M3.73212 2.02917C2.87365 2.02917 2.17773 2.72509 2.17773 3.58356C2.17773 4.44202 2.87365 5.13794 3.73212 5.13794C4.59058 5.13794 5.2865 4.44202 5.2865 3.58356C5.2865 2.72509 4.59058 2.02917 3.73212 2.02917ZM0.177734 3.58356C0.177734 1.62052 1.76908 0.0291748 3.73212 0.0291748C5.69515 0.0291748 7.2865 1.62052 7.2865 3.58356C7.2865 5.54659 5.69515 7.13794 3.73212 7.13794C1.76908 7.13794 0.177734 5.54659 0.177734 3.58356Z" fill="#1D4DC8"/>
</svg>
