<svg width="28" height="28" viewBox="0 0 28 28" fill="none" xmlns="http://www.w3.org/2000/svg">
<path d="M26.5721 20.3401V24.1931C26.5735 24.5508 26.5003 24.9049 26.357 25.2326C26.2137 25.5603 26.0035 25.8545 25.7399 26.0963C25.4764 26.3381 25.1652 26.5222 24.8264 26.6368C24.4875 26.7514 24.1285 26.794 23.7722 26.7618C19.8201 26.3324 16.0239 24.9819 12.6884 22.8189C9.58527 20.847 6.95433 18.216 4.98244 15.1129C2.81189 11.7623 1.46111 7.94757 1.03954 3.97771C1.00744 3.62255 1.04965 3.26459 1.16348 2.92664C1.2773 2.58868 1.46025 2.27813 1.70067 2.01476C1.94109 1.75138 2.23372 1.54095 2.55992 1.39687C2.88612 1.25278 3.23875 1.17819 3.59536 1.17786H7.44836C8.07166 1.17172 8.67592 1.39244 9.14851 1.79888C9.62111 2.20531 9.92979 2.76972 10.017 3.38691C10.1797 4.61996 10.4813 5.83065 10.9161 6.99589C11.0889 7.45558 11.1263 7.95518 11.0238 8.43547C10.9214 8.91577 10.6834 9.35664 10.3381 9.70583L8.70701 11.3369C10.5353 14.5523 13.1976 17.2146 16.413 19.0429L18.0441 17.4118C18.3933 17.0665 18.8342 16.8286 19.3145 16.7261C19.7948 16.6237 20.2944 16.6611 20.7541 16.8339C21.9193 17.2687 23.13 17.5703 24.363 17.7329C24.9869 17.8209 25.5567 18.1352 25.964 18.6159C26.3713 19.0966 26.5877 19.7102 26.5721 20.3401Z" stroke="#53BB5B" stroke-width="2" stroke-linecap="round" stroke-linejoin="round"/>
</svg>
