<svg width="76" height="93" viewBox="0 0 76 93" fill="none" xmlns="http://www.w3.org/2000/svg">
<g filter="url(#filter0_i_73_67)">
<path d="M61.1259 72.0343C58.2918 67.053 55.4621 62.0686 52.6151 57.0948C52.3761 56.6769 52.3618 56.3987 52.6734 55.9953C55.0542 52.9143 55.2517 48.7408 53.2082 45.4167C50.8151 41.5229 46.0688 39.9347 41.9166 41.7584C37.0202 43.9093 35.1585 49.277 36.9921 53.8414C38.5941 57.8285 42.6287 60.1092 46.8313 59.4792C47.1666 59.4291 47.374 59.4467 47.5706 59.793C53.2808 69.8569 59.0049 79.9123 64.7206 89.9727C64.8312 90.1676 65.128 90.4037 64.9038 90.6146C64.6366 90.8662 64.4411 90.5114 64.2638 90.3596C61.1393 87.6785 58.117 84.8771 54.9505 82.2456C51.0344 78.9912 46.9913 75.9162 42.5601 73.4085C39.2652 71.5432 35.8311 70.0162 32.1174 69.2199C30.785 68.9343 29.4364 68.7458 28.0739 68.7484C27.6176 68.7494 27.4832 68.5915 27.424 68.1525C26.7761 63.3476 26.1202 58.5431 25.4402 53.7427C24.975 50.4592 24.7918 47.1752 25.2486 43.8767C25.7113 40.5341 26.7736 37.4325 28.8596 34.7534C29.9569 33.3437 31.2428 32.1385 32.7727 31.2244C34.2967 30.3138 35.7945 29.3547 37.48 28.7523C40.4983 27.6733 43.5527 27.6122 46.6382 28.3719C50.2447 29.2599 53.4581 31.0009 56.4216 33.2089C61.2835 36.8312 65.968 40.69 70.7676 44.3959C71.0644 44.6249 71.0427 44.7913 70.8451 45.0739C68.5394 48.3685 67.448 52.1014 66.9567 56.066C66.4055 60.5151 66.6401 64.9442 67.1591 69.3718C67.6066 73.191 68.3152 76.9651 69.0713 80.7306C69.4797 82.7648 69.8599 84.8044 70.2521 86.8416C70.2698 86.9328 70.2837 87.025 70.2925 87.1177C70.3064 87.2715 70.3409 87.4439 70.1582 87.5201C69.9582 87.6033 69.8906 87.4284 69.8145 87.3006C69.6412 87.0084 69.4762 86.7113 69.3083 86.4156C66.5814 81.6222 63.8539 76.8283 61.1269 72.0348" fill="#14FFEC"/>
</g>
<g filter="url(#filter1_i_73_67)">
<path d="M7.60013 92.9466C7.66997 92.2944 7.81393 91.7979 7.99068 91.2913C8.27908 90.4665 8.46153 89.6046 8.6991 88.7617C8.90293 88.0378 9.12671 87.3195 9.33244 86.5961C9.68119 85.3694 10.0409 84.146 10.3578 82.9112C10.4818 82.4284 10.0998 82.0816 9.8413 81.7482C9.09773 80.7897 8.5138 79.73 7.85955 78.7164C6.58003 76.7348 5.52097 74.6252 4.56168 72.4786C3.68175 70.5099 2.98853 68.4584 2.37514 66.3859C1.69143 64.0761 1.26619 61.7135 0.857109 59.3424C0.48841 57.2043 0.410489 55.0463 0.321165 52.8958C0.242293 51.006 0.375329 49.1006 0.529271 47.2113C0.618595 46.1158 0.762083 45.0156 0.93408 43.9264C1.10655 42.8362 1.34839 41.7555 1.59783 40.6791C2.21217 38.0244 3.04507 35.4378 4.03952 32.9011C5.1038 30.1861 6.4755 27.6304 7.99923 25.1517C8.8901 23.7024 9.82325 22.2774 10.8676 20.9384C11.882 19.6384 12.9914 18.4103 14.0851 17.174C15.1912 15.9235 16.4071 14.7748 17.6576 13.6756C20.0404 11.5803 22.6023 9.72669 25.3414 8.10803C27.2457 6.98263 29.2066 5.98518 31.2344 5.12091C33.554 4.13249 35.9277 3.28868 38.3708 2.65035C40.3878 2.12332 42.4294 1.69 44.4933 1.44409C47.4714 1.08925 50.4686 0.791961 53.4714 1.0003C55.9173 1.17011 58.3747 1.35419 60.7779 1.86124C62.3149 2.18563 63.8619 2.4853 65.3728 2.95334C66.6129 3.33767 67.8278 3.78812 69.0579 4.19576C70.6339 4.71755 72.1287 5.43484 73.6429 6.09696C74.1855 6.33431 74.7034 6.67916 75.246 6.95266C75.6195 7.14102 75.4807 7.40311 75.2888 7.64379C74.6345 8.4643 73.9461 9.25959 73.3298 10.1077C72.6509 11.0414 71.913 11.9314 71.2145 12.8479C70.4125 13.9006 69.5407 14.9071 68.723 15.954C67.7442 17.2073 66.7298 18.4322 65.7377 19.675C64.949 20.6625 64.1651 21.6533 63.392 22.6531C63.1849 22.9209 62.9739 22.889 62.6988 22.7925C61.31 22.3064 59.9112 21.8426 58.4645 21.5667C56.573 21.2062 54.6929 20.8071 52.7454 20.7691C51.9362 20.7534 51.1128 20.633 50.2913 20.6097C48.7609 20.5669 47.2367 20.7339 45.722 20.8661C44.3746 20.984 43.0333 21.2956 41.6944 21.5563C39.9996 21.8864 38.3898 22.4776 36.764 23.0089C35.4583 23.4356 34.204 24.0202 32.9648 24.6361C30.9327 25.6469 29.0051 26.8218 27.1873 28.1679C24.7983 29.9373 22.6203 31.9403 20.6932 34.2187C18.7252 36.5456 17.0138 39.0423 15.6279 41.7507C14.8924 43.1886 14.2933 44.6946 13.7331 46.2176C12.9562 48.3305 12.3718 50.4852 11.977 52.6961C11.3427 56.2506 11.2776 59.8285 11.6192 63.4126C11.8815 66.1633 12.4878 68.8522 13.3663 71.4697C13.9184 73.1145 14.5574 74.7251 15.3324 76.2881C16.3411 78.323 17.5151 80.248 18.8231 82.0968C19.0422 82.407 18.9395 82.6101 18.7048 82.8179C17.126 84.2145 15.5766 85.6414 14.0495 87.095C13.0997 87.9988 12.1675 88.933 11.1669 89.7706C9.97577 90.7676 8.95757 91.9562 7.60013 92.9466Z" fill="#14FFEC"/>
</g>
<defs>
<filter id="filter0_i_73_67" x="24.9847" y="27.8626" width="48.0076" height="63.8397" filterUnits="userSpaceOnUse" color-interpolation-filters="sRGB">
<feFlood flood-opacity="0" result="BackgroundImageFix"/>
<feBlend mode="normal" in="SourceGraphic" in2="BackgroundImageFix" result="shape"/>
<feColorMatrix in="SourceAlpha" type="matrix" values="0 0 0 0 0 0 0 0 0 0 0 0 0 0 0 0 0 0 127 0" result="hardAlpha"/>
<feOffset dx="2" dy="1"/>
<feGaussianBlur stdDeviation="3.95"/>
<feComposite in2="hardAlpha" operator="arithmetic" k2="-1" k3="1"/>
<feColorMatrix type="matrix" values="0 0 0 0 0 0 0 0 0 0 0 0 0 0 0 0 0 0 0.56 0"/>
<feBlend mode="normal" in2="shape" result="effect1_innerShadow_73_67"/>
</filter>
<filter id="filter1_i_73_67" x="0.297729" y="0.931335" width="81.1832" height="93.0152" filterUnits="userSpaceOnUse" color-interpolation-filters="sRGB">
<feFlood flood-opacity="0" result="BackgroundImageFix"/>
<feBlend mode="normal" in="SourceGraphic" in2="BackgroundImageFix" result="shape"/>
<feColorMatrix in="SourceAlpha" type="matrix" values="0 0 0 0 0 0 0 0 0 0 0 0 0 0 0 0 0 0 127 0" result="hardAlpha"/>
<feOffset dx="6" dy="1"/>
<feGaussianBlur stdDeviation="3.95"/>
<feComposite in2="hardAlpha" operator="arithmetic" k2="-1" k3="1"/>
<feColorMatrix type="matrix" values="0 0 0 0 0 0 0 0 0 0 0 0 0 0 0 0 0 0 0.56 0"/>
<feBlend mode="normal" in2="shape" result="effect1_innerShadow_73_67"/>
</filter>
</defs>
</svg>
